<?xml version="1.0" encoding="UTF-8" standalone="no"?>
<!DOCTYPE svg PUBLIC "-//W3C//DTD SVG 1.1//EN" "http://www.w3.org/Graphics/SVG/1.1/DTD/svg11.dtd">
<svg xmlns="http://www.w3.org/2000/svg" version="1.1" viewBox="0.00 0.00 96.00 96.00">
<path fill="#3a745e" stroke-linecap="round" stroke-linejoin="round" d="M 40.49 0.00L 41.04 0.00L 41.15 21.31Q 41.16 21.84 40.70 22.10L 22.24 32.83Q 21.74 33.12 21.74 33.69Q 21.76 45.03 21.74 57.30Q 21.73 59.98 22.01 62.69Q 22.06 63.18 22.50 63.43L 40.77 73.91Q 41.23 74.18 41.23 74.71L 41.23 96.00L 40.66 96.00L 3.17 74.44Q 2.75 74.20 2.75 73.71L 2.75 22.70Q 2.75 21.97 3.38 21.60L 40.49 0.00Z"/>
<path fill="#5bb193" stroke-linecap="round" stroke-linejoin="round" d="M 74.00 62.74L 74.00 33.15A 0.30 0.30 0.0 0 0 73.85 32.89L 55.40 22.33A 0.30 0.30 0.0 0 1 55.25 22.07L 55.25 0.72A 0.30 0.30 0.0 0 1 55.70 0.46L 92.85 21.76A 0.30 0.30 0.0 0 1 93.00 22.02L 93.00 73.81A 0.30 0.30 0.0 0 1 92.85 74.07L 55.70 95.66A 0.30 0.30 0.0 0 1 55.25 95.40L 55.25 73.99A 0.30 0.30 0.0 0 1 55.40 73.73L 73.85 63.00A 0.30 0.30 0.0 0 0 74.00 62.74Z"/>
</svg>
